<?xml version="1.0" encoding="UTF-8"?>
<svg xmlns="http://www.w3.org/2000/svg" xmlns:xlink="http://www.w3.org/1999/xlink" width="179px" height="150px" viewBox="0 0 179 150" version="1.1">
<g id="surface1">
<path style="fill-rule:evenodd;fill:rgb(2.745098%,20.392157%,33.333333%);fill-opacity:1;stroke-width:2;stroke-linecap:round;stroke-linejoin:round;stroke:rgb(0%,0%,0%);stroke-opacity:1;stroke-miterlimit:4;" d="M -144.254652 401.250071 C -177.27942 482.256184 -249.900418 493.376184 -286.345392 503.596546 C -287.938781 505.291574 -288.913083 507.708629 -289.435755 510.453879 C -274.790782 509.388213 -233.499673 510.670101 -222.604747 506.697018 C -204.158983 499.970962 -183.363731 488.889573 -168.728908 475.804267 C -160.736589 468.65735 -147.877836 454.973572 -142.037101 446.710794 C -140.337147 444.309183 -134.552231 436.868822 -123.951625 422.100071 C -122.505396 420.084571 -118.516849 411.505182 -123.987147 403.439321 C -128.518664 396.755737 -139.728209 393.211237 -144.254652 401.250071 Z M -144.254652 401.250071 " transform="matrix(0.769782,0,0,1.011691,231.193085,-400.257338)"/>
<path style="fill-rule:evenodd;fill:rgb(2.745098%,20.392157%,33.333333%);fill-opacity:1;stroke-width:2;stroke-linecap:round;stroke-linejoin:round;stroke:rgb(0%,0%,0%);stroke-opacity:1;stroke-miterlimit:4;" d="M -90.693431 405.211571 C -94.316615 404.238571 -110.494083 412.690543 -129.761914 409.107432 C -132.091104 408.674987 -141.676812 412.906765 -144.762101 421.490016 C -150.66373 438.919072 -159.625276 458.560544 -172.7682 470.753934 C -187.408098 483.83924 -204.158983 495.422573 -222.604747 502.148629 C -233.499673 506.121712 -274.790782 509.388213 -289.435755 510.453879 C -290.953027 518.427074 -288.598464 529.21888 -286.040922 533.551047 C -253.792551 543.651714 -168.70861 538.547324 -117.715079 527.44663 C -101.395526 524.647324 -86.329371 520.369213 -75.322806 516.465629 C -71.709771 496.631101 -74.236866 476.109295 -80.813402 458.973683 C -91.611913 430.860932 -89.769874 428.378238 -90.693431 405.211571 Z M -90.693431 405.211571 " transform="matrix(0.769782,0,0,1.011691,231.193085,-400.257338)"/>
<path style="fill-rule:evenodd;fill:rgb(100%,100%,100%);fill-opacity:1;stroke-width:0.529167;stroke-linecap:butt;stroke-linejoin:miter;stroke:rgb(0%,0%,0%);stroke-opacity:1;stroke-miterlimit:4;" d="M -42.259524 244.244625 C -41.690251 244.347805 -37.456954 247.611771 -37.650292 247.884534 C -37.734878 248.804983 -38.139008 249.248351 -38.574018 249.642683 C -39.524597 248.601688 -41.243157 247.499397 -43.406126 245.98745 C -43.134915 245.360196 -42.916067 244.710468 -42.259524 244.244625 Z M -42.259524 244.244625 " transform="matrix(2.909413,0,0,3.823713,219.841018,-883.464223)"/>
<path style="fill-rule:evenodd;fill:rgb(100%,100%,100%);fill-opacity:1;stroke-width:0.529167;stroke-linecap:butt;stroke-linejoin:miter;stroke:rgb(0%,0%,0%);stroke-opacity:1;stroke-miterlimit:4;" d="M -45.138112 247.428907 C -44.532588 247.782376 -40.778609 251.883021 -40.992086 252.020935 C -41.317001 252.626735 -41.788263 253.324478 -42.291747 253.395989 C -43.279919 252.079165 -44.333879 251.099465 -46.606943 248.820307 C -46.302168 248.420867 -45.851046 247.512677 -45.138112 247.428907 Z M -45.138112 247.428907 " transform="matrix(2.909413,0,0,3.823713,219.841018,-883.464223)"/>
<path style="fill-rule:evenodd;fill:rgb(100%,100%,100%);fill-opacity:1;stroke-width:0.529167;stroke-linecap:butt;stroke-linejoin:miter;stroke:rgb(0%,0%,0%);stroke-opacity:1;stroke-miterlimit:4;" d="M -57.667488 254.905893 C -57.930642 256.005119 -56.648435 261.278544 -56.29801 261.123263 C -55.799896 261.444041 -55.103074 261.26935 -54.249165 260.699305 C -54.673434 259.386567 -55.752905 257.169727 -55.492435 254.070236 C -56.58936 253.782148 -57.404333 254.186696 -57.667488 254.905893 Z M -57.667488 254.905893 " transform="matrix(2.909413,0,0,3.823713,219.841018,-883.464223)"/>
<path style="fill-rule:evenodd;fill:rgb(100%,100%,100%);fill-opacity:1;stroke-width:0.529167;stroke-linecap:butt;stroke-linejoin:miter;stroke:rgb(0%,0%,0%);stroke-opacity:1;stroke-miterlimit:4;" d="M -48.549722 250.360858 C -47.830075 250.757233 -44.290915 255.556643 -44.546014 255.609765 C -45.117972 256.584358 -45.689931 256.831582 -46.260546 256.924546 C -47.036583 255.664931 -47.710581 253.859789 -50.414628 251.668488 C -50.462962 251.221033 -49.497615 250.062555 -48.549722 250.360858 Z M -48.549722 250.360858 " transform="matrix(2.909413,0,0,3.823713,219.841018,-883.464223)"/>
<path style="fill-rule:nonzero;fill:rgb(60%,60%,60%);fill-opacity:1;stroke-width:0.571063;stroke-linecap:round;stroke-linejoin:round;stroke:rgb(0%,0%,0%);stroke-opacity:1;stroke-miterlimit:4;" d="M -471.957427 1294.729457 C -471.958343 1295.578823 -472.645675 1296.265953 -473.495003 1296.265995 C -474.342881 1296.266016 -475.030998 1295.578749 -475.031531 1294.729404 C -475.032049 1293.881161 -474.343283 1293.192908 -473.493955 1293.192866 C -472.646077 1293.192845 -471.957945 1293.881214 -471.957427 1294.729457 Z M -471.957427 1294.729457 " transform="matrix(2.695146,0.0507667,-0.0384855,3.541298,1423.185642,-4452.477588)"/>
<path style="fill-rule:nonzero;fill:rgb(0%,0%,0%);fill-opacity:1;stroke-width:0.571063;stroke-linecap:round;stroke-linejoin:round;stroke:rgb(0%,0%,0%);stroke-opacity:1;stroke-miterlimit:4;" d="M -472.893728 1294.729638 C -472.893335 1295.061652 -473.161964 1295.331339 -473.495329 1295.330603 C -473.827229 1295.330949 -474.096298 1295.062351 -474.096707 1294.729234 C -474.09565 1294.397199 -473.827005 1294.128615 -473.495105 1294.128269 C -473.163206 1294.127923 -472.892672 1294.397603 -472.893728 1294.729638 Z M -472.893728 1294.729638 " transform="matrix(2.695146,0.0507667,-0.0384855,3.541298,1423.185642,-4452.477588)"/>
<path style="fill-rule:nonzero;fill:rgb(60%,60%,60%);fill-opacity:1;stroke-width:0.571063;stroke-linecap:round;stroke-linejoin:round;stroke:rgb(0%,0%,0%);stroke-opacity:1;stroke-miterlimit:4;" d="M -471.957469 1294.729176 C -471.958385 1295.578542 -472.645701 1296.266775 -473.495029 1296.266817 C -474.342907 1296.266838 -475.03104 1295.578468 -475.031557 1294.730226 C -475.03209 1293.880881 -474.343324 1293.192627 -473.493997 1293.192585 C -472.646119 1293.192564 -471.957986 1293.880934 -471.957469 1294.729176 Z M -471.957469 1294.729176 " transform="matrix(2.695146,0.0507667,-0.0384855,3.541298,1442.256056,-4454.695341)"/>
<path style="fill-rule:nonzero;fill:rgb(0%,0%,0%);fill-opacity:1;stroke-width:0.571063;stroke-linecap:round;stroke-linejoin:round;stroke:rgb(0%,0%,0%);stroke-opacity:1;stroke-miterlimit:4;" d="M -472.89377 1294.729357 C -472.893377 1295.061371 -473.162006 1295.331058 -473.495355 1295.331425 C -473.82727 1295.330668 -474.09634 1295.06207 -474.096733 1294.730056 C -474.095676 1294.398021 -473.827047 1294.128334 -473.495147 1294.127988 C -473.163232 1294.128745 -472.892713 1294.397322 -472.89377 1294.729357 Z M -472.89377 1294.729357 " transform="matrix(2.695146,0.0507667,-0.0384855,3.541298,1442.256056,-4454.695341)"/>
<path style="fill-rule:evenodd;fill:rgb(100%,100%,100%);fill-opacity:1;stroke-width:0.529167;stroke-linecap:butt;stroke-linejoin:miter;stroke:rgb(0%,0%,0%);stroke-opacity:1;stroke-miterlimit:4;" d="M -65.380868 257.363828 C -64.823679 260.175232 -64.999563 264.145113 -66.070977 265.719377 L -74.522801 262.844635 C -74.661092 262.946793 -73.181519 257.896074 -71.820097 257.379152 C -69.828984 256.623178 -65.380868 257.363828 -65.380868 257.363828 Z M -65.380868 257.363828 " transform="matrix(2.909413,0,0,3.823713,219.841018,-883.464223)"/>
<path style="fill-rule:evenodd;fill:rgb(100%,100%,100%);fill-opacity:1;stroke-width:0.529167;stroke-linecap:round;stroke-linejoin:round;stroke:rgb(0%,0%,0%);stroke-opacity:1;stroke-miterlimit:4;" d="M -15.029747 259.803374 C -28.505674 262.657685 -55.689801 267.19659 -74.145524 261.47571 C -75.210225 261.85574 -75.99029 264.845921 -74.365714 267.766635 C -61.847079 270.157145 -35.965298 271.887711 -14.291304 265.745938 C -13.95162 263.882566 -14.33561 262.539181 -15.029747 259.803374 Z M -15.029747 259.803374 " transform="matrix(2.909413,0,0,3.823713,219.841018,-883.464223)"/>
<path style="fill-rule:evenodd;fill:rgb(100%,100%,100%);fill-opacity:1;stroke-width:0.529167;stroke-linecap:butt;stroke-linejoin:miter;stroke:rgb(0%,0%,0%);stroke-opacity:1;stroke-miterlimit:4;" d="M -53.851748 253.562508 C -53.551 254.770022 -50.873806 259.936181 -50.638846 259.620511 C -50.100454 259.235373 -49.562061 259.12402 -49.023668 258.254651 C -50.539492 256.045982 -50.994642 255.180699 -52.125132 252.532749 C -52.921309 252.499037 -53.557713 252.349885 -53.851748 253.562508 Z M -53.851748 253.562508 " transform="matrix(2.909413,0,0,3.823713,219.841018,-883.464223)"/>
<path style=" stroke:none;fill-rule:evenodd;fill:rgb(0%,0%,0%);fill-opacity:1;" d="M 178.1875 119.613281 C 136.925781 133.398438 88.679688 140.453125 44.972656 134.691406 L 44.636719 138.71875 C 93.132812 142.964844 133.046875 137.558594 178.578125 123.6875 C 178.511719 122.378906 178.375 121.023438 178.1875 119.613281 Z M 178.1875 119.613281 "/>
<path style="fill-rule:evenodd;fill:rgb(100%,100%,100%);fill-opacity:1;stroke-width:0.529167;stroke-linecap:butt;stroke-linejoin:miter;stroke:rgb(0%,0%,0%);stroke-opacity:1;stroke-miterlimit:4;" d="M -62.580152 256.303422 C -63.03396 257.196288 -62.568069 262.13259 -62.196162 262.053928 C -61.367762 262.690375 -60.764923 262.204101 -60.104352 262.007956 C -60.288292 260.551175 -60.832055 258.401759 -60.290977 255.926457 C -61.118034 255.65778 -61.644343 255.699665 -62.580152 256.3024 Z M -62.580152 256.303422 " transform="matrix(2.909413,0,0,3.823713,219.841018,-883.464223)"/>
<path style="fill-rule:nonzero;fill:rgb(100%,100%,100%);fill-opacity:1;stroke-width:3.291938;stroke-linecap:butt;stroke-linejoin:miter;stroke:rgb(0%,0%,0%);stroke-opacity:1;stroke-miterlimit:4;" d="M 30.702958 260.587574 C 21.682212 259.424572 13.162618 253.50788 8.660598 245.271539 C 3.523784 235.884907 4.033289 223.810026 9.955242 214.79835 C 11.59234 212.307112 16.002483 207.890247 18.491541 206.25696 C 27.921561 200.066994 40.350144 199.812786 50.064151 205.602375 C 63.169291 213.412917 68.222579 230.088964 61.665833 243.898816 C 56.111392 255.57332 43.691161 262.271702 30.702958 260.587574 Z M 30.702958 260.587574 " transform="matrix(0.467672,0,0,0.614654,126.512181,-79.194643)"/>
<path style=" stroke:none;fill-rule:nonzero;fill:rgb(1.176471%,3.529412%,25.882353%);fill-opacity:1;" d="M 142.511719 46.523438 L 141.675781 46.582031 L 141.664062 46.585938 L 141.648438 46.585938 L 141.1875 46.664062 L 141.28125 47.667969 L 141.726562 47.59375 L 142.550781 47.535156 L 142.554688 47.535156 L 142.761719 47.539062 L 142.773438 46.527344 L 142.539062 46.523438 Z M 143.507812 47.566406 L 144.171875 47.636719 L 144.175781 47.636719 L 144.960938 47.792969 L 144.980469 47.800781 L 145.148438 46.8125 L 145.121094 46.804688 L 145.105469 46.800781 L 145.09375 46.796875 L 144.261719 46.632812 L 144.25 46.628906 L 144.238281 46.628906 L 143.570312 46.558594 Z M 139.96875 46.9375 L 139.945312 46.945312 L 139.132812 47.230469 L 139.121094 47.234375 L 139.105469 47.242188 L 138.859375 47.351562 L 139.109375 48.308594 L 139.332031 48.207031 L 139.339844 48.207031 L 140.136719 47.925781 L 140.140625 47.921875 L 140.546875 47.820312 L 140.402344 46.828125 Z M 145.730469 48.019531 L 145.757812 48.027344 L 146.539062 48.332031 L 147.144531 48.628906 L 147.414062 47.679688 L 146.800781 47.378906 L 146.789062 47.371094 L 146.777344 47.367188 L 145.964844 47.054688 L 145.953125 47.046875 L 145.941406 47.042969 L 145.898438 47.03125 Z M 137.507812 48.042969 L 137.496094 48.050781 L 137.480469 48.058594 L 136.726562 48.566406 L 136.714844 48.578125 L 136.703125 48.585938 L 136.671875 48.609375 L 137.070312 49.472656 L 137.085938 49.460938 L 137.828125 48.964844 L 137.832031 48.960938 L 138.410156 48.640625 L 138.109375 47.707031 Z M 147.824219 49.019531 L 148.046875 49.152344 L 148.054688 49.15625 L 148.789062 49.6875 L 149.125 49.964844 L 149.535156 49.105469 L 149.191406 48.824219 L 149.179688 48.8125 L 149.167969 48.808594 L 148.417969 48.265625 L 148.394531 48.25 L 148.144531 48.097656 Z M 135.96875 49.167969 L 135.945312 49.191406 L 135.53125 49.582031 L 135.523438 49.59375 L 135.511719 49.601562 L 135.050781 50.105469 L 135.042969 50.109375 L 135.039062 50.117188 L 134.753906 50.453125 L 135.269531 51.203125 L 135.539062 50.882812 L 135.550781 50.871094 L 135.996094 50.390625 L 136.003906 50.382812 L 136.382812 50.023438 L 136.414062 50 L 136.011719 49.132812 Z M 149.730469 50.507812 L 150.144531 50.929688 L 150.152344 50.933594 L 150.160156 50.941406 L 150.5625 51.394531 L 150.5625 51.398438 L 150.878906 51.78125 L 151.402344 51.042969 L 151.085938 50.652344 L 151.082031 50.644531 L 151.074219 50.636719 L 150.644531 50.15625 L 150.628906 50.140625 L 150.199219 49.707031 Z M 134.039062 51.34375 L 134.035156 51.351562 L 134.03125 51.355469 L 133.546875 52.011719 L 133.542969 52.015625 L 133.539062 52.023438 L 133.109375 52.652344 L 133.679688 53.328125 L 134.101562 52.714844 L 134.101562 52.710938 L 134.109375 52.699219 L 134.574219 52.070312 L 134.578125 52.066406 L 134.582031 52.058594 L 134.71875 51.886719 L 134.183594 51.160156 Z M 151.390625 52.46875 L 151.691406 52.917969 L 151.695312 52.921875 L 151.703125 52.9375 L 152.039062 53.480469 L 152.039062 53.484375 L 152.332031 54.007812 L 152.953125 53.410156 L 152.652344 52.867188 L 152.644531 52.859375 L 152.640625 52.847656 L 152.292969 52.28125 L 152.285156 52.273438 L 152.28125 52.265625 L 151.964844 51.800781 Z M 132.390625 53.859375 L 132.382812 53.875 L 132.375 53.894531 L 131.949219 54.8125 L 131.941406 54.828125 L 131.9375 54.84375 L 131.769531 55.273438 L 132.453125 55.738281 L 132.617188 55.316406 L 132.621094 55.308594 L 133.027344 54.433594 L 133.222656 54.074219 L 132.597656 53.480469 Z M 152.734375 54.816406 L 152.914062 55.214844 L 153.175781 55.847656 L 153.402344 56.453125 L 153.402344 56.457031 L 153.429688 56.542969 L 154.136719 56.144531 L 154.109375 56.054688 L 154.101562 56.03125 L 153.863281 55.382812 L 153.859375 55.375 L 153.855469 55.363281 L 153.59375 54.730469 L 153.589844 54.722656 L 153.585938 54.710938 L 153.394531 54.296875 Z M 131.230469 56.8125 L 131.226562 56.828125 L 131.222656 56.847656 L 130.953125 57.855469 L 130.945312 57.871094 L 130.941406 57.886719 L 130.882812 58.179688 L 131.621094 58.449219 L 131.675781 58.191406 L 131.679688 58.183594 L 131.9375 57.214844 L 131.941406 57.207031 L 132.132812 56.617188 L 131.425781 56.214844 Z M 153.714844 57.457031 L 153.800781 57.761719 L 153.804688 57.765625 L 153.960938 58.402344 L 154.105469 59.074219 L 154.148438 59.328125 L 154.898438 59.097656 L 154.855469 58.84375 L 154.851562 58.835938 L 154.851562 58.824219 L 154.703125 58.132812 L 154.703125 58.121094 L 154.699219 58.109375 L 154.53125 57.429688 L 154.523438 57.40625 L 154.433594 57.101562 Z M 130.554688 59.992188 L 130.550781 60.007812 L 130.550781 60.023438 L 130.4375 61.078125 L 130.433594 61.09375 L 130.433594 61.113281 L 130.425781 61.25 L 131.195312 61.328125 L 131.199219 61.199219 L 131.308594 60.199219 L 131.308594 60.195312 L 131.433594 59.398438 L 130.679688 59.191406 Z M 154.300781 60.296875 L 154.320312 60.4375 L 154.320312 60.449219 L 154.324219 60.460938 L 154.394531 61.125 L 154.441406 61.820312 L 154.457031 62.238281 L 155.226562 62.191406 L 155.210938 61.773438 L 155.210938 61.753906 L 155.160156 61.035156 L 155.160156 61.023438 L 155.15625 61.011719 L 155.082031 60.296875 L 155.082031 60.277344 L 155.058594 60.113281 Z M 130.363281 63.273438 L 130.363281 63.304688 L 130.410156 64.347656 L 131.175781 64.292969 L 131.132812 63.28125 L 131.132812 63.273438 L 131.140625 62.304688 L 130.371094 62.292969 Z M 154.46875 63.226562 L 154.445312 63.945312 L 154.398438 64.625 L 154.398438 64.632812 L 154.339844 65.171875 L 155.105469 65.308594 L 155.160156 64.761719 L 155.160156 64.753906 L 155.164062 64.738281 L 155.210938 64.015625 L 155.214844 64.003906 L 155.214844 63.992188 L 155.238281 63.265625 L 155.238281 63.226562 L 154.550781 63.226562 L 154.46875 63.222656 Z M 130.503906 65.386719 L 130.507812 65.457031 L 130.511719 65.472656 L 130.511719 65.488281 L 130.664062 66.535156 L 130.667969 66.550781 L 130.667969 66.566406 L 130.839844 67.429688 L 131.585938 67.171875 L 131.417969 66.324219 L 131.273438 65.332031 L 131.265625 65.261719 Z M 154.105469 66.722656 L 154.101562 66.730469 L 153.953125 67.414062 L 153.800781 68.019531 L 154.53125 68.339844 L 154.683594 67.738281 L 154.691406 67.714844 L 154.84375 67 L 154.847656 66.988281 L 154.847656 66.976562 L 154.960938 66.351562 L 154.210938 66.121094 Z M 131.082031 68.425781 L 131.136719 68.636719 L 131.140625 68.652344 L 131.148438 68.671875 L 131.457031 69.652344 L 131.464844 69.671875 L 131.46875 69.6875 L 131.71875 70.34375 L 132.40625 69.890625 L 132.160156 69.246094 L 131.863281 68.296875 L 131.8125 68.101562 Z M 153.347656 69.460938 L 152.90625 70.5625 L 152.863281 70.65625 L 153.511719 71.195312 L 153.5625 71.089844 L 153.574219 71.074219 L 153.578125 71.054688 L 154.035156 69.917969 L 154.039062 69.902344 L 154.042969 69.890625 L 154.234375 69.328125 L 153.53125 68.914062 Z M 132.105469 71.253906 L 132.207031 71.480469 L 132.210938 71.492188 L 132.21875 71.507812 L 132.617188 72.285156 L 132.625 72.296875 L 132.628906 72.308594 L 133.011719 72.964844 L 133.625 72.351562 L 133.246094 71.703125 L 133.242188 71.695312 L 132.863281 70.953125 L 132.859375 70.941406 L 132.769531 70.742188 Z M 152.40625 71.601562 L 151.851562 72.570312 L 151.539062 73.035156 L 152.117188 73.707031 L 152.4375 73.230469 L 152.449219 73.214844 L 152.457031 73.199219 L 153.03125 72.195312 L 153.039062 72.179688 L 153.046875 72.160156 L 153.101562 72.050781 L 152.449219 71.507812 Z M 133.523438 73.757812 L 133.539062 73.785156 L 133.554688 73.808594 L 134.046875 74.484375 L 134.054688 74.492188 L 134.0625 74.503906 L 134.585938 75.140625 L 134.601562 75.15625 L 134.671875 75.230469 L 135.160156 74.453125 L 135.097656 74.386719 L 135.09375 74.378906 L 134.601562 73.78125 L 134.601562 73.777344 L 134.125 73.128906 L 134.121094 73.125 L 134.105469 73.101562 Z M 150.585938 74.3125 L 149.902344 75.050781 L 150.390625 75.832031 L 151.085938 75.078125 L 151.097656 75.066406 L 151.109375 75.050781 L 151.566406 74.472656 L 151.03125 73.742188 Z M 135.285156 75.886719 L 135.734375 76.324219 L 135.742188 76.332031 L 135.753906 76.339844 L 136.34375 76.847656 L 136.355469 76.855469 L 136.363281 76.863281 L 136.601562 77.042969 L 136.984375 76.164062 L 136.765625 76 L 136.761719 75.996094 L 136.191406 75.507812 L 135.742188 75.070312 Z M 149.144531 75.75 L 148.371094 76.351562 L 148.367188 76.355469 L 148.015625 76.582031 L 148.355469 77.492188 L 148.710938 77.261719 L 148.726562 77.253906 L 148.738281 77.242188 L 149.546875 76.617188 L 149.570312 76.59375 L 149.738281 76.441406 L 149.296875 75.613281 Z M 137.296875 77.539062 L 137.621094 77.753906 L 137.632812 77.761719 L 137.644531 77.765625 L 138.285156 78.128906 L 138.308594 78.144531 L 138.753906 78.355469 L 139.015625 77.402344 L 138.589844 77.203125 L 138.582031 77.195312 L 137.96875 76.851562 L 137.964844 76.847656 L 137.640625 76.632812 Z M 146.695312 77.328125 L 145.921875 77.644531 L 146.148438 78.613281 L 146.9375 78.289062 L 146.953125 78.285156 L 146.96875 78.277344 L 147.628906 77.929688 L 147.34375 76.992188 Z M 139.507812 78.667969 L 139.65625 78.722656 L 139.667969 78.726562 L 139.675781 78.730469 L 140.355469 78.933594 L 140.378906 78.941406 L 141.0625 79.085938 L 141.1875 78.089844 L 140.515625 77.945312 L 139.859375 77.746094 L 139.847656 77.746094 L 139.726562 77.699219 Z M 144.925781 77.953125 L 144.011719 78.128906 L 143.738281 78.152344 L 143.789062 79.164062 L 144.074219 79.136719 L 144.089844 79.136719 L 144.105469 79.132812 L 145.050781 78.953125 L 145.082031 78.945312 L 145.371094 78.859375 L 145.199219 77.871094 Z M 141.425781 79.132812 L 142.074219 79.207031 L 142.089844 79.210938 L 142.105469 79.210938 L 142.992188 79.222656 L 143 78.210938 L 142.136719 78.199219 L 141.492188 78.125 Z M 141.425781 79.132812 "/>
<path style=" stroke:none;fill-rule:nonzero;fill:rgb(1.176471%,3.529412%,25.882353%);fill-opacity:1;" d="M 142.945312 49.304688 L 143.296875 49.3125 L 143.300781 49.3125 L 144.011719 49.390625 L 144.019531 49.390625 L 144.421875 49.472656 L 144.539062 48.46875 L 144.109375 48.382812 L 144.09375 48.382812 L 144.082031 48.378906 L 143.339844 48.300781 L 143.3125 48.300781 L 142.953125 48.292969 Z M 141.800781 48.339844 L 141.785156 48.339844 L 141.773438 48.34375 L 141.035156 48.464844 L 141.019531 48.464844 L 141.007812 48.46875 L 140.582031 48.578125 L 140.726562 49.570312 L 141.148438 49.464844 L 141.15625 49.460938 L 141.847656 49.351562 L 142.199219 49.324219 L 142.160156 48.316406 Z M 145.152344 49.65625 L 145.40625 49.730469 L 145.414062 49.730469 L 146.109375 50 L 146.570312 50.230469 L 146.839844 49.28125 L 146.371094 49.050781 L 146.359375 49.042969 L 146.34375 49.039062 L 145.625 48.757812 L 145.601562 48.75 L 145.320312 48.667969 Z M 139.53125 48.917969 L 139.515625 48.921875 L 139.503906 48.925781 L 138.796875 49.246094 L 138.78125 49.25 L 138.769531 49.257812 L 138.304688 49.519531 L 138.605469 50.449219 L 139.066406 50.191406 L 139.070312 50.191406 L 139.746094 49.886719 L 139.753906 49.882812 L 140.003906 49.796875 L 139.808594 48.820312 Z M 147.253906 50.613281 L 147.445312 50.730469 L 147.449219 50.734375 L 148.101562 51.203125 L 148.511719 51.539062 L 148.515625 51.542969 L 148.53125 51.5625 L 148.972656 50.730469 L 148.945312 50.703125 L 148.9375 50.699219 L 148.5 50.339844 L 148.492188 50.332031 L 148.480469 50.324219 L 147.8125 49.84375 L 147.800781 49.832031 L 147.789062 49.824219 L 147.574219 49.695312 Z M 137.382812 50.109375 L 137.371094 50.117188 L 137.359375 50.128906 L 136.707031 50.644531 L 136.683594 50.667969 L 136.316406 51.015625 L 136.296875 51.035156 L 136.222656 51.117188 L 136.710938 51.898438 L 136.777344 51.824219 L 136.785156 51.816406 L 137.121094 51.5 L 137.734375 51.011719 L 137.738281 51.007812 L 137.9375 50.871094 L 137.589844 49.972656 Z M 149.140625 52.140625 L 149.300781 52.300781 L 149.304688 52.308594 L 149.3125 52.316406 L 149.683594 52.726562 L 150.019531 53.144531 L 150.242188 53.445312 L 150.796875 52.738281 L 150.570312 52.4375 L 150.566406 52.429688 L 150.558594 52.421875 L 150.195312 51.972656 L 150.179688 51.957031 L 149.800781 51.53125 L 149.792969 51.519531 L 149.785156 51.515625 L 149.613281 51.339844 Z M 134.988281 52.582031 L 134.980469 52.59375 L 134.96875 52.605469 L 134.511719 53.25 L 135.074219 53.9375 L 135.53125 53.300781 L 135.53125 53.296875 L 136.148438 52.539062 L 135.625 51.800781 Z M 150.734375 54.179688 L 150.976562 54.5625 L 151.511719 55.566406 L 151.589844 55.746094 L 152.257812 55.242188 L 152.175781 55.050781 L 152.164062 55.03125 L 152.15625 55.011719 L 151.59375 53.957031 L 151.582031 53.9375 L 151.574219 53.921875 L 151.320312 53.527344 Z M 133.792969 54.324219 L 133.785156 54.335938 L 133.78125 54.347656 L 133.515625 54.828125 L 133.507812 54.847656 L 133.496094 54.863281 L 133.121094 55.683594 L 133.105469 55.714844 L 133.078125 55.789062 L 133.761719 56.25 L 133.78125 56.199219 L 134.148438 55.402344 L 134.386719 54.964844 L 134.394531 54.957031 L 134.578125 54.667969 L 133.980469 54.023438 Z M 151.972656 56.625 L 151.976562 56.640625 L 152.367188 57.757812 L 152.542969 58.402344 L 153.265625 58.066406 L 153.089844 57.410156 L 153.085938 57.386719 L 153.078125 57.367188 L 152.671875 56.203125 L 152.667969 56.183594 L 152.65625 56.164062 L 152.640625 56.121094 Z M 132.480469 57.464844 L 132.472656 57.480469 L 132.46875 57.5 L 132.230469 58.394531 L 132.222656 58.425781 L 132.167969 58.683594 L 132.910156 58.953125 L 132.960938 58.699219 L 132.964844 58.699219 L 133.1875 57.867188 L 133.1875 57.859375 L 133.429688 57.125 L 132.71875 56.722656 Z M 152.757812 59.324219 L 152.914062 60.128906 L 153.050781 61.261719 L 153.8125 61.101562 L 153.671875 59.9375 L 153.664062 59.890625 L 153.503906 59.074219 Z M 131.875 60.300781 L 131.875 60.316406 L 131.871094 60.332031 L 131.769531 61.269531 L 131.769531 61.304688 L 131.742188 61.761719 L 132.507812 61.835938 L 132.535156 61.394531 L 132.632812 60.484375 L 132.722656 59.902344 L 131.972656 59.695312 Z M 153.109375 62.226562 L 153.128906 62.570312 L 153.105469 63.804688 L 153.078125 64.152344 L 153.839844 64.269531 L 153.875 63.90625 L 153.875 63.859375 L 153.898438 62.570312 L 153.898438 62.546875 L 153.894531 62.523438 L 153.875 62.15625 Z M 131.703125 63.226562 L 131.703125 63.242188 L 131.707031 63.261719 L 131.746094 64.203125 L 131.746094 64.238281 L 131.808594 64.886719 L 132.570312 64.765625 L 132.511719 64.121094 L 132.511719 64.113281 L 132.476562 63.210938 L 132.476562 63.203125 L 132.480469 62.8125 L 131.707031 62.804688 Z M 152.914062 65.664062 L 152.910156 65.675781 L 152.910156 65.6875 L 152.804688 66.277344 L 152.800781 66.292969 L 152.800781 66.300781 L 152.671875 66.890625 L 152.667969 66.90625 L 152.667969 66.914062 L 152.640625 67.019531 L 153.371094 67.339844 L 153.402344 67.214844 L 153.40625 67.203125 L 153.40625 67.191406 L 153.546875 66.554688 L 153.546875 66.542969 L 153.550781 66.53125 L 153.664062 65.894531 L 153.664062 65.882812 L 153.667969 65.871094 L 153.746094 65.308594 L 152.988281 65.121094 Z M 131.941406 65.917969 L 131.972656 66.136719 L 131.972656 66.152344 L 131.976562 66.167969 L 132.160156 67.082031 L 132.160156 67.101562 L 132.167969 67.117188 L 132.371094 67.929688 L 133.101562 67.605469 L 132.898438 66.8125 L 132.726562 65.929688 L 132.695312 65.726562 Z M 152.339844 68.101562 L 152.132812 68.707031 L 152.128906 68.71875 L 151.746094 69.675781 L 151.738281 69.699219 L 151.9375 69.835938 L 152.394531 70.21875 L 152.402344 70.207031 L 152.417969 70.167969 L 152.824219 69.160156 L 152.828125 69.144531 L 152.832031 69.132812 L 153.042969 68.511719 L 153.046875 68.503906 L 153.050781 68.492188 L 153.101562 68.3125 L 152.386719 67.945312 Z M 133.261719 68.578125 L 132.671875 68.898438 L 132.679688 68.921875 L 132.683594 68.9375 L 132.691406 68.953125 L 133.015625 69.800781 L 133.019531 69.816406 L 133.027344 69.832031 L 133.347656 70.550781 L 133.355469 70.5625 L 133.359375 70.578125 L 133.453125 70.753906 L 134.089844 70.191406 L 134.003906 70.023438 L 134 70.011719 L 133.703125 69.347656 L 133.699219 69.339844 L 133.386719 68.519531 L 133.382812 68.511719 L 133.378906 68.5 Z M 151.304688 70.597656 L 150.8125 71.457031 L 150.414062 72.050781 L 150.988281 72.71875 L 151.398438 72.113281 L 151.40625 72.097656 L 151.417969 72.082031 L 151.925781 71.191406 L 151.9375 71.175781 L 151.945312 71.15625 L 151.984375 71.074219 L 151.335938 70.53125 Z M 133.910156 71.605469 L 134.113281 71.953125 L 134.117188 71.96875 L 134.125 71.976562 L 134.539062 72.609375 L 134.542969 72.621094 L 134.554688 72.632812 L 134.949219 73.171875 L 135.503906 72.472656 L 135.113281 71.9375 L 135.109375 71.929688 L 134.714844 71.328125 L 134.710938 71.320312 L 134.523438 70.992188 Z M 149.6875 73 L 149.070312 73.667969 L 148.746094 73.964844 L 149.191406 74.792969 L 149.523438 74.484375 L 149.535156 74.476562 L 149.546875 74.460938 L 150.191406 73.765625 L 150.203125 73.753906 L 150.214844 73.738281 L 150.429688 73.46875 L 149.894531 72.738281 Z M 135.546875 73.898438 L 135.972656 74.363281 L 135.988281 74.378906 L 136.496094 74.871094 L 136.503906 74.878906 L 136.515625 74.886719 L 136.8125 75.144531 L 137.234375 74.296875 L 136.953125 74.058594 L 136.445312 73.566406 L 136.039062 73.121094 Z M 147.714844 74.816406 L 146.996094 75.277344 L 146.808594 75.375 L 147.09375 76.316406 L 147.296875 76.210938 L 147.308594 76.203125 L 147.324219 76.191406 L 148.074219 75.710938 L 148.085938 75.703125 L 148.097656 75.691406 L 148.519531 75.367188 L 148.128906 74.496094 Z M 137.492188 75.679688 L 137.601562 75.765625 L 137.609375 75.773438 L 137.621094 75.78125 L 138.179688 76.148438 L 138.1875 76.15625 L 138.199219 76.160156 L 138.773438 76.484375 L 138.78125 76.492188 L 138.792969 76.496094 L 138.945312 76.570312 L 139.207031 75.617188 L 139.078125 75.554688 L 139.066406 75.550781 L 138.503906 75.230469 L 137.984375 74.890625 L 137.980469 74.882812 L 137.875 74.804688 Z M 145.46875 75.984375 L 144.667969 76.222656 L 144.730469 76.597656 L 144.800781 77.21875 L 144.808594 77.21875 L 144.824219 77.214844 L 144.835938 77.210938 L 145.660156 76.964844 L 145.675781 76.960938 L 145.691406 76.953125 L 146.347656 76.6875 L 146.117188 75.71875 Z M 139.699219 76.898438 L 139.992188 77.015625 L 140.015625 77.023438 L 140.617188 77.203125 L 140.640625 77.210938 L 141.25 77.339844 L 141.308594 76.839844 L 141.277344 77.34375 L 141.644531 77.386719 L 141.714844 76.378906 L 141.355469 76.335938 L 140.777344 76.214844 L 140.195312 76.039062 L 139.917969 75.929688 Z M 143.875 76.375 L 143.042969 76.449219 L 142.453125 76.441406 L 142.441406 77.453125 L 143.050781 77.460938 L 143.078125 77.460938 L 143.9375 77.382812 L 143.953125 77.382812 L 143.964844 77.378906 L 144.039062 77.367188 L 143.925781 76.363281 Z M 143.875 76.375 "/>
<path style=" stroke:none;fill-rule:nonzero;fill:rgb(1.176471%,3.529412%,25.882353%);fill-opacity:1;" d="M 139.089844 70.261719 C 139.882812 67 140.363281 64.953125 140.363281 64.828125 C 140.363281 64.746094 139.535156 63.894531 138.519531 62.9375 L 136.671875 61.203125 L 138.996094 61.132812 L 141.320312 61.066406 L 141.5 60.328125 C 141.601562 59.921875 141.921875 58.59375 142.214844 57.375 L 142.75 55.160156 L 143.480469 58.046875 L 144.214844 60.933594 L 146.570312 61 L 148.929688 61.066406 L 147.046875 62.871094 C 146.015625 63.867188 145.167969 64.714844 145.167969 64.757812 C 145.167969 64.800781 145.488281 66.097656 145.882812 67.644531 C 146.273438 69.1875 146.585938 70.464844 146.570312 70.484375 C 146.554688 70.503906 145.71875 69.738281 144.710938 68.78125 C 143.699219 67.824219 142.839844 67.042969 142.792969 67.042969 C 142.75 67.042969 142.007812 67.734375 141.144531 68.574219 C 140.277344 69.417969 139.445312 70.214844 139.289062 70.347656 L 139.007812 70.589844 Z M 139.089844 70.261719 "/>
<path style=" stroke:none;fill-rule:nonzero;fill:rgb(66.666667%,0%,0%);fill-opacity:1;" d="M 133.710938 59.730469 C 133.679688 59.679688 133.65625 59.628906 133.644531 59.578125 C 133.632812 59.527344 133.628906 59.472656 133.636719 59.421875 C 133.652344 59.328125 133.691406 59.261719 133.746094 59.21875 C 133.804688 59.175781 133.890625 59.167969 134.003906 59.199219 L 134.40625 59.316406 C 134.519531 59.351562 134.597656 59.402344 134.636719 59.476562 C 134.675781 59.546875 134.6875 59.628906 134.671875 59.71875 C 134.660156 59.800781 134.628906 59.863281 134.585938 59.90625 C 134.542969 59.945312 134.46875 59.964844 134.367188 59.960938 C 134.300781 59.953125 134.246094 59.96875 134.203125 60 C 134.121094 60.0625 134.042969 60.164062 133.976562 60.304688 C 133.910156 60.4375 133.867188 60.582031 133.839844 60.730469 C 133.808594 60.917969 133.8125 61.097656 133.847656 61.273438 C 133.882812 61.445312 133.960938 61.613281 134.078125 61.773438 C 134.199219 61.933594 134.351562 62.039062 134.542969 62.097656 L 134.851562 62.183594 C 135.082031 62.25 135.289062 62.199219 135.476562 62.023438 C 135.667969 61.851562 135.792969 61.570312 135.859375 61.183594 C 135.898438 60.949219 135.90625 60.746094 135.886719 60.574219 C 135.875 60.472656 135.835938 60.359375 135.769531 60.226562 C 135.734375 60.148438 135.710938 60.089844 135.703125 60.050781 C 135.691406 60.007812 135.691406 59.964844 135.699219 59.917969 C 135.714844 59.835938 135.75 59.769531 135.808594 59.71875 C 135.867188 59.671875 135.929688 59.65625 135.992188 59.675781 C 136.058594 59.691406 136.121094 59.753906 136.179688 59.863281 C 136.265625 60.015625 136.324219 60.199219 136.355469 60.414062 C 136.394531 60.699219 136.386719 61 136.335938 61.316406 C 136.273438 61.683594 136.160156 62 135.992188 62.261719 C 135.859375 62.476562 135.679688 62.636719 135.453125 62.75 C 135.226562 62.859375 134.992188 62.878906 134.757812 62.8125 L 134.433594 62.71875 C 134.1875 62.648438 133.972656 62.503906 133.78125 62.292969 C 133.59375 62.078125 133.464844 61.824219 133.394531 61.519531 C 133.324219 61.21875 133.3125 60.917969 133.363281 60.621094 C 133.390625 60.4375 133.4375 60.277344 133.496094 60.128906 C 133.550781 59.980469 133.625 59.847656 133.710938 59.730469 Z M 133.710938 59.730469 "/>
<path style=" stroke:none;fill-rule:nonzero;fill:rgb(66.666667%,0%,0%);fill-opacity:1;" d="M 137.132812 55.472656 C 137.476562 55.816406 137.679688 56.246094 137.742188 56.761719 C 137.804688 57.277344 137.726562 57.722656 137.507812 58.097656 C 137.308594 58.4375 137.039062 58.644531 136.691406 58.726562 C 136.261719 58.828125 135.859375 58.691406 135.484375 58.316406 C 135.109375 57.941406 134.902344 57.46875 134.859375 56.894531 C 134.828125 56.433594 134.910156 56.03125 135.109375 55.691406 C 135.328125 55.316406 135.632812 55.101562 136.027344 55.042969 C 136.421875 54.984375 136.789062 55.128906 137.132812 55.472656 Z M 136.839844 55.980469 C 136.605469 55.746094 136.355469 55.644531 136.09375 55.675781 C 135.832031 55.707031 135.632812 55.84375 135.496094 56.078125 C 135.355469 56.316406 135.3125 56.605469 135.359375 56.945312 C 135.402344 57.289062 135.542969 57.574219 135.777344 57.808594 C 136.011719 58.042969 136.257812 58.144531 136.523438 58.113281 C 136.785156 58.082031 136.984375 57.945312 137.121094 57.710938 C 137.257812 57.472656 137.304688 57.183594 137.257812 56.84375 C 137.214844 56.503906 137.074219 56.214844 136.839844 55.980469 Z M 136.839844 55.980469 "/>
<path style=" stroke:none;fill-rule:nonzero;fill:rgb(66.666667%,0%,0%);fill-opacity:1;" d="M 138.203125 53.691406 L 138.886719 55.398438 L 139.042969 55.289062 C 139.148438 55.21875 139.230469 55.195312 139.296875 55.21875 C 139.359375 55.238281 139.410156 55.289062 139.445312 55.375 C 139.476562 55.457031 139.480469 55.539062 139.460938 55.625 C 139.4375 55.707031 139.375 55.78125 139.269531 55.855469 L 138.707031 56.246094 C 138.601562 56.316406 138.519531 56.34375 138.453125 56.324219 C 138.390625 56.300781 138.339844 56.246094 138.304688 56.160156 C 138.273438 56.082031 138.269531 56 138.289062 55.914062 C 138.3125 55.832031 138.367188 55.757812 138.457031 55.695312 L 137.570312 53.488281 L 137.503906 53.535156 C 137.398438 53.605469 137.316406 53.632812 137.25 53.613281 C 137.1875 53.589844 137.136719 53.535156 137.101562 53.449219 C 137.070312 53.367188 137.0625 53.28125 137.085938 53.199219 C 137.109375 53.117188 137.171875 53.039062 137.277344 52.96875 L 137.773438 52.625 L 139.78125 54.125 L 139.097656 52.425781 L 138.941406 52.535156 C 138.839844 52.605469 138.753906 52.632812 138.691406 52.613281 C 138.625 52.589844 138.574219 52.535156 138.542969 52.449219 C 138.507812 52.367188 138.503906 52.285156 138.523438 52.203125 C 138.546875 52.117188 138.613281 52.039062 138.714844 51.96875 L 139.28125 51.578125 C 139.382812 51.507812 139.464844 51.480469 139.53125 51.503906 C 139.597656 51.523438 139.644531 51.574219 139.679688 51.660156 C 139.714844 51.742188 139.71875 51.824219 139.695312 51.910156 C 139.675781 51.992188 139.617188 52.066406 139.53125 52.128906 L 140.644531 54.898438 L 140.21875 55.195312 Z M 138.203125 53.691406 "/>
<path style=" stroke:none;fill-rule:nonzero;fill:rgb(66.666667%,0%,0%);fill-opacity:1;" d="M 142.398438 53.65625 L 143.015625 51.40625 L 142.90625 51.414062 C 142.789062 51.421875 142.703125 51.398438 142.652344 51.34375 C 142.597656 51.285156 142.570312 51.210938 142.566406 51.113281 C 142.566406 51.019531 142.585938 50.941406 142.632812 50.878906 C 142.679688 50.816406 142.761719 50.78125 142.878906 50.773438 L 143.53125 50.730469 C 143.648438 50.722656 143.730469 50.746094 143.78125 50.800781 C 143.835938 50.855469 143.863281 50.929688 143.867188 51.027344 C 143.871094 51.140625 143.835938 51.234375 143.765625 51.304688 C 143.730469 51.339844 143.65625 51.363281 143.542969 51.371094 L 142.667969 54.570312 L 142.203125 54.601562 L 141.085938 51.535156 C 140.972656 51.542969 140.898438 51.53125 140.859375 51.5 C 140.78125 51.441406 140.742188 51.351562 140.738281 51.238281 C 140.734375 51.140625 140.753906 51.0625 140.804688 51.003906 C 140.851562 50.9375 140.929688 50.902344 141.046875 50.894531 L 141.703125 50.855469 C 141.820312 50.847656 141.902344 50.871094 141.953125 50.925781 C 142.007812 50.980469 142.035156 51.054688 142.039062 51.148438 C 142.042969 51.246094 142.019531 51.324219 141.972656 51.386719 C 141.925781 51.449219 141.84375 51.484375 141.730469 51.492188 L 141.613281 51.5 Z M 142.398438 53.65625 "/>
<path style=" stroke:none;fill-rule:nonzero;fill:rgb(66.666667%,0%,0%);fill-opacity:1;" d="M 145.269531 53.5 L 145.003906 54.371094 L 146.152344 54.980469 L 146.25 54.660156 C 146.296875 54.515625 146.347656 54.425781 146.40625 54.386719 C 146.46875 54.347656 146.53125 54.347656 146.597656 54.382812 C 146.664062 54.417969 146.710938 54.476562 146.730469 54.5625 C 146.753906 54.644531 146.746094 54.757812 146.703125 54.898438 L 146.421875 55.8125 L 144.300781 54.6875 C 144.191406 54.632812 144.125 54.5625 144.09375 54.484375 C 144.066406 54.40625 144.0625 54.320312 144.089844 54.230469 C 144.117188 54.144531 144.164062 54.085938 144.226562 54.058594 C 144.289062 54.027344 144.375 54.039062 144.484375 54.097656 L 144.554688 54.136719 L 145.261719 51.816406 L 145.191406 51.78125 C 145.085938 51.722656 145.015625 51.65625 144.984375 51.574219 C 144.957031 51.496094 144.957031 51.410156 144.984375 51.324219 C 145.007812 51.234375 145.054688 51.175781 145.117188 51.144531 C 145.179688 51.113281 145.265625 51.128906 145.375 51.183594 L 147.394531 52.257812 L 147.121094 53.160156 C 147.078125 53.300781 147.027344 53.390625 146.964844 53.429688 C 146.90625 53.46875 146.84375 53.46875 146.777344 53.433594 C 146.707031 53.398438 146.664062 53.339844 146.636719 53.257812 C 146.617188 53.175781 146.625 53.0625 146.667969 52.921875 L 146.765625 52.609375 L 145.714844 52.054688 L 145.453125 52.910156 L 145.847656 53.121094 C 145.894531 52.964844 145.9375 52.871094 145.972656 52.839844 C 146.046875 52.769531 146.125 52.757812 146.207031 52.800781 C 146.273438 52.835938 146.316406 52.894531 146.339844 52.976562 C 146.363281 53.058594 146.355469 53.171875 146.3125 53.316406 L 146.101562 53.996094 C 146.0625 54.125 146.023438 54.207031 145.988281 54.238281 C 145.914062 54.304688 145.835938 54.316406 145.757812 54.273438 C 145.671875 54.226562 145.625 54.148438 145.605469 54.027344 C 145.597656 53.972656 145.617188 53.867188 145.664062 53.710938 Z M 145.269531 53.5 "/>
<path style=" stroke:none;fill-rule:nonzero;fill:rgb(66.666667%,0%,0%);fill-opacity:1;" d="M 148.125 55.886719 L 147.679688 56.433594 L 147.796875 56.601562 C 147.878906 56.714844 147.917969 56.816406 147.917969 56.902344 C 147.921875 56.992188 147.894531 57.066406 147.84375 57.132812 C 147.789062 57.199219 147.730469 57.226562 147.664062 57.21875 C 147.597656 57.210938 147.523438 57.152344 147.445312 57.039062 L 146.941406 56.335938 C 146.859375 56.222656 146.816406 56.121094 146.816406 56.035156 C 146.816406 55.945312 146.84375 55.871094 146.894531 55.804688 C 146.945312 55.742188 147.007812 55.710938 147.074219 55.722656 C 147.140625 55.730469 147.214844 55.789062 147.292969 55.898438 L 147.34375 55.96875 L 148.730469 54.261719 L 148.679688 54.1875 C 148.597656 54.074219 148.558594 53.976562 148.554688 53.886719 C 148.554688 53.800781 148.582031 53.722656 148.632812 53.65625 C 148.6875 53.59375 148.746094 53.5625 148.8125 53.570312 C 148.878906 53.578125 148.953125 53.636719 149.035156 53.75 L 149.785156 54.804688 C 150.019531 55.132812 150.140625 55.464844 150.144531 55.796875 C 150.152344 56.128906 150.066406 56.40625 149.886719 56.625 C 149.777344 56.761719 149.648438 56.84375 149.496094 56.871094 C 149.34375 56.898438 149.171875 56.867188 148.980469 56.785156 C 148.984375 56.964844 148.976562 57.171875 148.953125 57.410156 C 148.9375 57.5625 148.902344 57.78125 148.847656 58.070312 C 148.933594 58.191406 148.980469 58.28125 148.988281 58.339844 C 149 58.453125 148.976562 58.546875 148.910156 58.628906 C 148.859375 58.691406 148.800781 58.722656 148.730469 58.714844 C 148.667969 58.707031 148.59375 58.648438 148.511719 58.535156 L 148.324219 58.269531 C 148.496094 57.347656 148.539062 56.707031 148.453125 56.347656 Z M 148.476562 55.449219 L 148.738281 55.8125 C 148.832031 55.945312 148.933594 56.046875 149.042969 56.113281 C 149.183594 56.207031 149.296875 56.246094 149.378906 56.238281 C 149.460938 56.230469 149.523438 56.199219 149.566406 56.144531 C 149.632812 56.0625 149.664062 55.9375 149.652344 55.777344 C 149.640625 55.609375 149.574219 55.4375 149.445312 55.257812 L 149.0625 54.726562 Z M 148.476562 55.449219 "/>
<path style=" stroke:none;fill-rule:nonzero;fill:rgb(66.666667%,0%,0%);fill-opacity:1;" d="M 151.484375 59.921875 L 149.679688 60.707031 L 149.785156 61.113281 C 149.820312 61.257812 149.824219 61.371094 149.796875 61.453125 C 149.769531 61.535156 149.722656 61.589844 149.652344 61.617188 C 149.585938 61.648438 149.523438 61.640625 149.464844 61.597656 C 149.40625 61.554688 149.359375 61.460938 149.324219 61.3125 L 148.964844 59.894531 C 148.929688 59.75 148.921875 59.632812 148.949219 59.554688 C 148.976562 59.472656 149.027344 59.417969 149.09375 59.386719 C 149.160156 59.359375 149.222656 59.367188 149.28125 59.40625 C 149.339844 59.453125 149.390625 59.546875 149.425781 59.691406 L 149.527344 60.097656 L 151.332031 59.3125 L 151.167969 58.65625 L 150.730469 58.84375 C 150.621094 58.894531 150.53125 58.898438 150.46875 58.863281 C 150.410156 58.828125 150.367188 58.765625 150.34375 58.675781 C 150.324219 58.585938 150.328125 58.503906 150.359375 58.425781 C 150.394531 58.351562 150.464844 58.289062 150.578125 58.242188 L 151.476562 57.847656 L 152.265625 60.988281 L 151.367188 61.378906 C 151.257812 61.429688 151.171875 61.433594 151.109375 61.398438 C 151.046875 61.363281 151.007812 61.300781 150.984375 61.210938 C 150.960938 61.121094 150.964844 61.039062 151 60.960938 C 151.03125 60.886719 151.105469 60.824219 151.214844 60.773438 L 151.652344 60.585938 Z M 151.484375 59.921875 "/>
<path style="fill-rule:evenodd;fill:rgb(100%,100%,100%);fill-opacity:1;stroke-width:0.529167;stroke-linecap:round;stroke-linejoin:miter;stroke:rgb(0%,0%,0%);stroke-opacity:1;stroke-miterlimit:4;" d="M -33.290789 241.112443 C -33.290789 241.112443 -32.796703 241.388271 -32.269052 241.782603 C -31.742743 242.176935 -31.247314 242.760261 -31.207035 242.900218 C -31.17347 243.013614 -31.263426 243.304766 -31.529265 243.802278 C -31.793762 244.29979 -32.231458 244.986296 -32.015296 245.870989 C -31.744085 246.978388 -30.871379 247.81098 -30.10474 248.507702 C -29.339444 249.203402 -28.622482 249.700914 -28.622482 249.700914 C -27.74172 250.387419 -26.432661 248.587385 -27.381897 247.998952 C -27.381897 247.998952 -28.090803 247.64957 -28.771514 247.030489 C -29.452225 246.412429 -30.016127 245.762701 -30.106083 245.393909 C -30.136963 245.271318 -30.096685 244.885159 -29.82816 244.381517 C -29.559635 243.876854 -29.193098 243.201586 -29.449539 242.320979 C -29.72075 241.392358 -30.557205 240.779406 -31.182868 240.310498 C -31.807189 239.842612 -32.387203 239.690396 -32.387203 239.690396 C -32.804759 239.683245 -33.884229 240.810054 -33.290789 241.112443 Z M -33.290789 241.112443 " transform="matrix(2.909413,0,0,3.823713,219.841018,-883.464223)"/>
<path style="fill-rule:evenodd;fill:rgb(100%,100%,100%);fill-opacity:1;stroke-width:0.529167;stroke-linecap:butt;stroke-linejoin:miter;stroke:rgb(0%,0%,0%);stroke-opacity:1;stroke-miterlimit:4;" d="M -39.975719 240.945925 C -39.399733 240.994961 -34.872401 243.837012 -35.038887 244.127142 C -35.034859 245.051677 -35.39334 245.531823 -35.789414 245.965997 C -36.835319 245.02103 -38.651891 244.088322 -40.949122 242.790908 C -40.739672 242.140158 -40.583928 241.473063 -39.975719 240.945925 Z M -39.975719 240.945925 " transform="matrix(2.909413,0,0,3.823713,219.841018,-883.464223)"/>
</g>
</svg>
