<?xml version="1.0" encoding="UTF-8"?>
<svg xmlns="http://www.w3.org/2000/svg" xmlns:xlink="http://www.w3.org/1999/xlink" width="179px" height="150px" viewBox="0 0 179 150" version="1.1">
<g id="surface1">
<path style=" stroke:none;fill-rule:nonzero;fill:rgb(97.647059%,32.941176%,15.686275%);fill-opacity:1;" d="M 22.207031 65.941406 L 17.398438 60.085938 L 76.605469 25.957031 L 81.414062 31.8125 Z M 22.207031 65.941406 "/>
<path style=" stroke:none;fill-rule:nonzero;fill:rgb(97.647059%,32.941176%,15.686275%);fill-opacity:1;" d="M 156.796875 65.941406 L 97.589844 31.8125 L 102.398438 25.957031 L 161.605469 60.085938 Z M 156.796875 65.941406 "/>
<path style=" stroke:none;fill-rule:nonzero;fill:rgb(89.803922%,27.843137%,15.686275%);fill-opacity:1;" d="M 171.386719 70.839844 L 170.089844 78.65625 L 160.714844 135.097656 C 160.230469 138.015625 157.253906 140.183594 153.742188 140.183594 L 25.261719 140.183594 C 21.75 140.183594 18.773438 138.015625 18.289062 135.097656 L 8.914062 78.65625 L 7.617188 70.839844 Z M 171.386719 70.839844 "/>
<path style=" stroke:none;fill-rule:nonzero;fill:rgb(97.647059%,32.941176%,15.686275%);fill-opacity:1;" d="M 23.5625 135.921875 L 13.460938 75.101562 L 165.539062 75.101562 L 155.4375 135.921875 Z M 23.5625 135.921875 "/>
<path style=" stroke:none;fill-rule:nonzero;fill:rgb(89.803922%,27.843137%,15.686275%);fill-opacity:1;" d="M 171.386719 70.839844 L 170.089844 78.65625 L 8.914062 78.65625 L 7.617188 70.839844 Z M 171.386719 70.839844 "/>
<path style=" stroke:none;fill-rule:nonzero;fill:rgb(100%,100%,100%);fill-opacity:1;" d="M 42.339844 90.128906 L 43.660156 90.128906 C 45.953125 90.128906 47.820312 91.691406 47.820312 93.613281 C 47.820312 95.085938 49.242188 96.28125 51 96.28125 C 52.757812 96.28125 54.179688 95.085938 54.179688 93.613281 C 54.179688 88.753906 49.460938 84.796875 43.660156 84.796875 L 42.339844 84.796875 C 35.8125 84.796875 30.5 89.25 30.5 94.71875 C 30.5 100.191406 35.8125 104.640625 42.339844 104.640625 C 45.363281 104.640625 47.820312 106.703125 47.820312 109.234375 C 47.820312 111.765625 45.363281 113.824219 42.339844 113.824219 L 41.023438 113.824219 C 38.726562 113.824219 36.863281 112.261719 36.863281 110.339844 C 36.863281 108.867188 35.4375 107.671875 33.679688 107.671875 C 31.925781 107.671875 30.5 108.867188 30.5 110.339844 C 30.5 115.199219 35.222656 119.15625 41.023438 119.15625 L 42.339844 119.15625 C 48.871094 119.15625 54.179688 114.703125 54.179688 109.234375 C 54.179688 103.761719 48.871094 99.3125 42.339844 99.3125 C 39.320312 99.3125 36.863281 97.253906 36.863281 94.71875 C 36.863281 92.1875 39.320312 90.128906 42.339844 90.128906 Z M 42.339844 90.128906 "/>
<path style=" stroke:none;fill-rule:nonzero;fill:rgb(100%,100%,100%);fill-opacity:1;" d="M 115.699219 109.789062 C 113.941406 109.789062 112.519531 110.980469 112.519531 112.453125 L 112.519531 113.824219 L 101.558594 113.824219 L 101.558594 87.464844 C 101.558594 85.992188 100.136719 84.796875 98.378906 84.796875 C 96.621094 84.796875 95.199219 85.992188 95.199219 87.464844 L 95.199219 116.488281 C 95.199219 117.960938 96.621094 119.15625 98.378906 119.15625 L 115.699219 119.15625 C 117.457031 119.15625 118.878906 117.960938 118.878906 116.488281 L 118.878906 112.453125 C 118.878906 110.980469 117.457031 109.789062 115.699219 109.789062 Z M 115.699219 109.789062 "/>
<path style=" stroke:none;fill-rule:nonzero;fill:rgb(100%,100%,100%);fill-opacity:1;" d="M 145.320312 94.964844 C 147.074219 94.964844 148.5 93.773438 148.5 92.300781 L 148.5 87.464844 C 148.5 85.992188 147.074219 84.796875 145.320312 84.796875 L 128 84.796875 C 126.242188 84.796875 124.820312 85.992188 124.820312 87.464844 L 124.820312 116.492188 C 124.820312 117.960938 126.242188 119.15625 128 119.15625 L 145.320312 119.15625 C 147.074219 119.15625 148.5 117.960938 148.5 116.492188 L 148.5 112.453125 C 148.5 110.980469 147.074219 109.789062 145.320312 109.789062 C 143.5625 109.789062 142.136719 110.980469 142.136719 112.453125 L 142.136719 113.824219 L 131.179688 113.824219 L 131.179688 104.640625 L 137.769531 104.640625 C 139.527344 104.640625 140.949219 103.449219 140.949219 101.976562 C 140.949219 100.503906 139.527344 99.3125 137.769531 99.3125 L 131.179688 99.3125 L 131.179688 90.128906 L 142.136719 90.128906 L 142.136719 92.300781 C 142.136719 93.773438 143.5625 94.964844 145.320312 94.964844 Z M 145.320312 94.964844 "/>
<path style=" stroke:none;fill-rule:nonzero;fill:rgb(100%,100%,100%);fill-opacity:1;" d="M 73.769531 84.984375 C 67.304688 84.984375 62.042969 89.394531 62.042969 94.8125 L 62.042969 116.300781 C 62.042969 117.773438 63.464844 118.96875 65.222656 118.96875 C 66.980469 118.96875 68.402344 117.773438 68.402344 116.300781 L 68.402344 109.292969 L 79.136719 109.292969 L 79.136719 116.300781 C 79.136719 117.773438 80.5625 118.96875 82.316406 118.96875 C 84.074219 118.96875 85.5 117.773438 85.5 116.300781 L 85.5 94.8125 C 85.5 89.394531 80.238281 84.984375 73.769531 84.984375 Z M 68.402344 103.964844 L 68.402344 94.8125 C 68.402344 92.335938 70.8125 90.316406 73.769531 90.316406 C 76.730469 90.316406 79.136719 92.335938 79.136719 94.8125 L 79.136719 103.964844 Z M 68.402344 103.964844 "/>
<path style=" stroke:none;fill-rule:nonzero;fill:rgb(40%,40%,40%);fill-opacity:1;" d="M 175.1875 73.320312 L 3.8125 73.320312 C 1.707031 73.320312 0 71.886719 0 70.121094 L 0 61.796875 C 0 60.03125 1.707031 58.601562 3.8125 58.601562 L 175.183594 58.601562 C 177.292969 58.601562 179 60.03125 179 61.796875 L 179 70.121094 C 179 71.886719 177.292969 73.320312 175.1875 73.320312 Z M 175.1875 73.320312 "/>
<path style=" stroke:none;fill-rule:nonzero;fill:rgb(40%,40%,40%);fill-opacity:1;" d="M 89.5 37.417969 C 80.417969 37.417969 73.03125 31.226562 73.03125 23.617188 C 73.03125 16.007812 80.417969 9.816406 89.5 9.816406 C 98.582031 9.816406 105.96875 16.007812 105.96875 23.617188 C 105.96875 31.226562 98.582031 37.417969 89.5 37.417969 Z M 89.5 16.921875 C 85.09375 16.921875 81.511719 19.925781 81.511719 23.617188 C 81.511719 27.308594 85.09375 30.3125 89.5 30.3125 C 93.90625 30.3125 97.488281 27.308594 97.488281 23.617188 C 97.488281 19.925781 93.90625 16.921875 89.5 16.921875 Z M 89.5 16.921875 "/>
</g>
</svg>
